<?xml version="1.0" encoding="utf-8"?>
<!-- Generator: Adobe Illustrator 19.0.0, SVG Export Plug-In . SVG Version: 6.00 Build 0)  -->
<svg version="1.1" id="Layer_1" xmlns="http://www.w3.org/2000/svg" xmlns:xlink="http://www.w3.org/1999/xlink" x="0px" y="0px" width="100px"
	 height="100px" viewBox="0 0 100 100" enable-background="new 0 0 100 100" xml:space="preserve">
<circle class="st0" fill="#0798A6" cx="50" cy="50" r="50"/>
<g>
	<path fill="#FFFFFF" d="M75.9,45.2H60.6l-8.4-23c-0.3-0.8-1.1-1.4-2-1.4c-1-0.1-1.7,0.5-2,1.4l-8.7,23H24.1c-1.8,0-2.9,1.4-2.5,3.2
		l6.6,24.7c0.5,1.8,2.4,3.2,4.2,3.2h35.1c1.8,0,3.7-1.4,4.2-3.2l6.6-24.7C78.8,46.7,77.7,45.2,75.9,45.2z M50.2,29l5.9,16.2h-12
		L50.2,29z M35.1,70.3c-0.2,0-0.4,0.1-0.5,0.1c-0.9,0-1.8-0.6-2-1.6l-3.7-14.5c-0.3-1.1,0.4-2.3,1.5-2.6c1.1-0.3,2.3,0.4,2.6,1.5
		l3.7,14.5C36.9,68.9,36.2,70,35.1,70.3z M42.8,70.4c-0.1,0-0.2,0-0.3,0c-1,0-1.9-0.7-2.1-1.8L38,54.1c-0.2-1.2,0.6-2.2,1.8-2.4
		c1.2-0.2,2.2,0.6,2.4,1.8l2.4,14.5C44.7,69.1,43.9,70.2,42.8,70.4z M52.1,68.3c0,1.2-0.9,2.1-2.1,2.1c-1.2,0-2.1-0.9-2.1-2.1V53.7
		c0-1.2,0.9-2.1,2.1-2.1c1.2,0,2.1,0.9,2.1,2.1V68.3z M59.6,68.6c-0.2,1-1.1,1.8-2.1,1.8c-0.1,0-0.2,0-0.3,0
		c-1.2-0.2-1.9-1.3-1.8-2.4l2.4-14.5c0.2-1.2,1.3-1.9,2.4-1.8c1.2,0.2,1.9,1.3,1.8,2.4L59.6,68.6z M71.1,54.3l-3.7,14.5
		c-0.2,1-1.1,1.6-2,1.6c-0.2,0-0.3,0-0.5-0.1c-1.1-0.3-1.8-1.4-1.5-2.6L67,53.2c0.3-1.1,1.4-1.8,2.6-1.5
		C70.7,52,71.4,53.1,71.1,54.3z"/>
</g>
</svg>
