<?xml version="1.0" encoding="iso-8859-1"?>
<!-- Generator: Adobe Illustrator 18.1.1, SVG Export Plug-In . SVG Version: 6.00 Build 0)  -->
<svg version="1.1" id="Rgb" xmlns="http://www.w3.org/2000/svg" xmlns:xlink="http://www.w3.org/1999/xlink" x="0px" y="0px"
	 width="567.377px" height="107.122px" viewBox="0 0 567.377 107.122" style="enable-background:new 0 0 567.377 107.122;"
	 xml:space="preserve">
<style type="text/css">
	.st0{fill:#5BAC26;}
	.st1{fill:#FFFFFF;}
</style>
<g>
	<g>
		<path class="st0" d="M108.156,106.384c0,0.448-0.359,0.737-0.8,0.737H57.74c-19.683,0-31.191-5.592-41.323-15.117
			C6.292,82.489,0,68.983,0,53.563C0,38.144,6.292,24.64,16.42,15.119C26.548,5.596,38.06,0,57.74,0h49.617
			c0.441,0,0.8,0.294,0.8,0.736V106.384z"/>
		<path class="st1" d="M54.084,82.436c11.689,0,19.484-10.512,19.525-18.742H32.967C33.509,72.712,43.117,82.436,54.084,82.436z
			 M93.432,52.274l4.805,11.42H86.215c-1.126,9.697-7.72,30.275-31.918,30.275c-0.024,0-0.382,0-0.407,0
			c-17.212-0.035-33.844-13.177-33.844-36.262c-0.007-3.738,0.502-5.434,0.502-5.434h53.734v-24.6
			c-0.069-4.004-2.391-6.482-6.558-6.545c-3.482,0.024-6.579,2.668-6.586,6.541v7.312l-11.772,7.667l0.012-15.016
			c0-9.463,8.371-17.019,18.69-17.019c9.542,0,18.282,6.205,18.282,17.1v24.56H93.432z"/>
	</g>
	<g>
		<path d="M280.632,23.237c-17.668,0-30.008,12.663-30.008,30.794c0,17.566,12.902,30.815,30.008,30.815
			c17.031,0,29.877-13.248,29.877-30.815C310.509,35.9,298.222,23.237,280.632,23.237z M280.632,75.444
			c-12.283,0-17.879-11.101-17.879-21.413c0-10.368,6.268-21.392,17.879-21.392c11.527,0,17.75,11.023,17.75,21.392
			C298.382,64.342,292.825,75.444,280.632,75.444z M383.891,23.146c-17.279,0-28.285,12.931-28.285,30.12
			c0,18.892,11.121,31.662,31.678,31.662c10.079,0,14.999-2.526,19.32-4.006V69.571c-2.76,2.164-11.401,5.807-18.84,5.807
			c-10.681,0-20.16-6.427-20.16-17.922h43.113c0.01-0.507,0.026-0.963,0.026-1.465C410.743,37.922,403.736,23.146,383.891,23.146z
			 M367.164,48.649c0.839-7.512,5.397-16.242,16.439-16.242c9.718,0,15.238,7.365,15.238,16.242H367.164z M498.998,23.146
			c-17.282,0-28.285,12.931-28.285,30.12c0,18.892,11.121,31.662,31.675,31.662c10.082,0,15.002-2.526,19.32-4.006V69.571
			c-2.76,2.164-11.399,5.807-18.837,5.807c-10.681,0-20.159-6.427-20.159-17.922h43.112c0.008-0.507,0.026-0.963,0.026-1.465
			C525.85,37.922,518.844,23.146,498.998,23.146z M482.268,48.649c0.842-7.512,5.4-16.242,16.442-16.242
			c9.718,0,15.238,7.365,15.238,16.242H482.268z M343.283,75.054c-4.133,0-8.306-2.986-8.302-9.663c0,0,0-29.713,0-30.934
			c1.167,0,13.236,0,13.236,0v-9.869c0,0-12.069,0-13.236,0c0-1.178,0-15.168,0-15.168l-11.903,4.441c0,0,0,9.574,0,10.727
			c-1.15,0-9.345,0-9.345,0v9.869c0,0,8.194,0,9.345,0c0,1.223,0,33.083,0,33.083c0,11.373,6.359,17.386,18.396,17.386
			c3.601,0,7.122-1.007,9.226-1.608l0.459-0.161V72.495l-0.979,0.627C348.18,74.406,345.859,75.054,343.283,75.054z M566.398,73.122
			c-2.001,1.284-4.32,1.933-6.896,1.933c-4.134,0-8.303-2.986-8.303-9.663c0,0,0-29.713,0-30.934c1.168,0,13.24,0,13.24,0v-9.869
			c0,0-12.072,0-13.24,0c0-1.178,0-15.168,0-15.168l-11.902,4.441c0,0,0,9.574,0,10.727c-1.15,0-9.342,0-9.342,0v9.869
			c0,0,8.191,0,9.342,0c0,1.223,0,33.083,0,33.083c0,11.373,6.359,17.386,18.398,17.386c3.598,0,7.118-1.007,9.223-1.608
			l0.459-0.161V72.495L566.398,73.122z M217.603,23.204c-9.192,0-15.716,4.21-19.159,8.541c0-2.06,0-7.185,0-7.185h-11.453
			l-0.001,79.557h11.905c0,0,0-24.479,0-27.463c4.006,5.448,10.308,8.243,18.823,8.243c18.752,0,25.408-17.169,25.408-31.87
			C243.127,39.268,236.442,23.204,217.603,23.204z M215.23,75.663c-11.992,0-16.97-11.891-16.97-21.509
			c0-10.746,5.543-21.72,17.083-21.72c11.539,0,16.064,10.974,15.837,21.382C231.407,62.867,226.654,75.663,215.23,75.663z
			 M176.381,71.591V47.709c0-16.722-7.57-24.506-23.824-24.506c-6.68,0-13.183,1.855-19.329,5.518l-0.334,0.199l0.667,10.695
			l0.965-0.812c4.199-3.536,10.458-5.733,16.333-5.733c9.445,0,13.399,4.024,13.584,13.744c-3.828-0.186-6.741-0.194-10.641-0.194
			c-10.194,0-27.447,4.137-27.447,19.645c0,12.016,7.737,18.631,21.79,18.631c9.403,0,14.921-4.839,17.462-7.887
			c0,1.957,0,6.534,0,6.534h11.318l-0.097-0.724C176.529,80.568,176.381,76.895,176.381,71.591z M165.112,60.491
			c0,8.61-5.542,15.173-16.063,15.173c-4.864,0-10.746-3.278-10.746-9.398c0-10.188,14.254-11.093,20.023-11.093
			c2.263,0,4.524,0.227,6.787,0.227V60.491z M469.783,24.559h-15.302c0,0-20.316,20.514-22.291,22.51c0-2.904,0-44.137,0-44.137
			h-11.903v80.611h11.903c0,0,0-25.577,0-28.594c2.043,2.347,24.87,28.594,24.87,28.594h15.995c0,0-28.904-31.861-29.746-32.758
			C444.194,49.946,469.783,24.559,469.783,24.559z"/>
	</g>
</g>
</svg>
